HIERARCHY
ROOT joint_Root
{
	OFFSET 0.0 0.0 0.0
	CHANNELS 6 Xposition Yposition Zposition Zrotation Xrotation Yrotation 
	JOINT Hips
	{
		OFFSET 4.5925 91.4895 -427.239
		CHANNELS 6 Xposition Yposition Zposition Zrotation Xrotation Yrotation 
		JOINT Spine
		{
			OFFSET 15.7357 0.0 0.0
			CHANNELS 6 Xposition Yposition Zposition Zrotation Xrotation Yrotation 
			JOINT Chest
			{
				OFFSET 8.98455 -0.406207 0.0
				CHANNELS 6 Xposition Yposition Zposition Zrotation Xrotation Yrotation 
				JOINT Neck
				{
					OFFSET 16.3773 0.0 0.0
					CHANNELS 6 Xposition Yposition Zposition Zrotation Xrotation Yrotation 
					JOINT Head
					{
						OFFSET 6.45672 0.0 0.0
						CHANNELS 6 Xposition Yposition Zposition Zrotation Xrotation Yrotation 
						End Site
						{
							OFFSET 0.0 0.0 0.0
						}
					}
				}
				JOINT Shoulder_L
				{
					OFFSET 12.9942 -0.242716 4.98039
					CHANNELS 6 Xposition Yposition Zposition Zrotation Xrotation Yrotation 
					JOINT UpperArm_L
					{
						OFFSET 5.34809 0.0 0.0
						CHANNELS 6 Xposition Yposition Zposition Zrotation Xrotation Yrotation 
						JOINT LowerArm_L
						{
							OFFSET 24.3286 1.87007e-05 0.0
							CHANNELS 6 Xposition Yposition Zposition Zrotation Xrotation Yrotation 
							JOINT Hand_L
							{
								OFFSET 22.2916 0.0 0.0
								CHANNELS 6 Xposition Yposition Zposition Zrotation Xrotation Yrotation 
								End Site
								{
									OFFSET 0.0 0.0 0.0
								}
							}
						}
					}
				}
				JOINT Shoulder_R
				{
					OFFSET 12.9945 -0.242716 -4.98039
					CHANNELS 6 Xposition Yposition Zposition Zrotation Xrotation Yrotation 
					JOINT UpperArm_R
					{
						OFFSET -5.34813 0.0 0.0
						CHANNELS 6 Xposition Yposition Zposition Zrotation Xrotation Yrotation 
						JOINT LowerArm_R
						{
							OFFSET -24.3289 0.000322201 0.0
							CHANNELS 6 Xposition Yposition Zposition Zrotation Xrotation Yrotation 
							JOINT Hand_R
							{
								OFFSET -22.2915 -0.000108084 0.0
								CHANNELS 6 Xposition Yposition Zposition Zrotation Xrotation Yrotation 
								End Site
								{
									OFFSET 0.0 0.0 0.0
								}
							}
						}
					}
				}
			}
		}
		JOINT UpperLeg_L
		{
			OFFSET -2.19248 -6.46944 0.0
			CHANNELS 6 Xposition Yposition Zposition Zrotation Xrotation Yrotation 
			JOINT LowerLeg_L
			{
				OFFSET 39.0811 0.0 -1.23785e-05
				CHANNELS 6 Xposition Yposition Zposition Zrotation Xrotation Yrotation 
				JOINT Foot_L
				{
					OFFSET 40.9854 0.0 -1.26872e-05
					CHANNELS 6 Xposition Yposition Zposition Zrotation Xrotation Yrotation 
					JOINT Toes_L
					{
						OFFSET 11.7543 0.0 0.0
						CHANNELS 6 Xposition Yposition Zposition Zrotation Xrotation Yrotation 
						End Site
						{
							OFFSET 0.0 0.0 0.0
						}
					}
				}
			}
		}
		JOINT UpperLeg_R
		{
			OFFSET -2.19251 6.46944 0.0
			CHANNELS 6 Xposition Yposition Zposition Zrotation Xrotation Yrotation 
			JOINT LowerLeg_R
			{
				OFFSET -39.0811 -0.00228153 -0.0401928
				CHANNELS 6 Xposition Yposition Zposition Zrotation Xrotation Yrotation 
				JOINT Foot_R
				{
					OFFSET -40.9854 0.0 0.0
					CHANNELS 6 Xposition Yposition Zposition Zrotation Xrotation Yrotation 
					JOINT Toes_R
					{
						OFFSET -11.7543 0.0 0.0
						CHANNELS 6 Xposition Yposition Zposition Zrotation Xrotation Yrotation 
						End Site
						{
							OFFSET 0.0 0.0 0.0
						}
					}
				}
			}
		}
	}
}
MOTION
Frames:	9
Frame Time:	0.0333333
0.000000 0.000000 0.000000 0.000000 0.000000 -0.000000 -1.397440 91.817200 -0.220197 89.557900 1.369430 3.426660 15.735700 0.000005 -0.000001 87.755200 87.465500 -88.451300 8.984550 -0.406207 -0.000000 -2.701410 -0.134914 -1.395480 16.377300 -0.000001 -0.000001 6.122940 -4.186980 1.243960 6.456720 -0.000001 -0.000000 -1.795610 -5.768080 1.081660 12.994200 -0.242716 4.980390 -83.691200 -10.941300 -59.779800 5.348090 -0.000007 -0.000001 -49.822200 -57.311300 -99.381900 24.328600 0.000019 0.000005 15.741500 16.038600 -45.573000 22.291600 -0.000001 0.000005 30.551000 5.383950 -2.423230 12.994500 -0.242716 -4.980390 94.462400 -10.334700 -66.489900 -5.348130 -0.000001 -0.000004 -51.880600 -58.895500 -98.759400 -24.328900 0.000322 -0.000009 -0.790867 -0.795370 -44.798100 -22.291500 -0.000108 -0.000004 23.219100 5.597990 -11.222800 -2.192480 -6.469440 -0.000000 -175.794000 -8.510670 -4.657500 39.081100 -0.000007 -0.000012 -0.142899 0.306604 24.989000 40.985400 -0.000006 -0.000013 -0.558578 6.136420 -66.980600 11.754300 -0.000000 0.000003 -0.000172 -0.001632 -16.639400 -2.192510 6.469440 -0.000001 177.147000 24.489400 176.908000 -39.081100 -0.002282 -0.040193 -0.041490 0.097515 24.675900 -40.985400 0.000008 0.000006 4.531230 10.658900 -68.398100 -11.754300 -0.000006 -0.000006 -0.002471 -0.034466 -17.974600
0.000000 0.000000 0.000000 0.000000 0.000000 -0.000000 -1.424020 91.820800 -0.262110 89.529800 1.234620 3.418000 15.735700 0.000005 -0.000001 88.312800 87.442800 -89.053200 8.984550 -0.406207 -0.000000 -2.654030 -0.083226 -1.482810 16.377300 -0.000001 -0.000001 6.065240 -4.113860 1.153030 6.456720 -0.000001 -0.000000 -1.748150 -5.732650 1.137500 12.994200 -0.242716 4.980390 -83.735900 -10.822600 -59.690100 5.348090 -0.000007 -0.000001 -50.462000 -57.214800 -100.334000 24.328600 0.000019 0.000005 15.756800 16.177700 -45.361500 22.291600 -0.000001 0.000005 30.599200 5.382970 -2.392040 12.994500 -0.242716 -4.980390 94.408500 -10.238300 -66.551400 -5.348130 -0.000001 -0.000004 -51.831000 -58.977200 -98.722500 -24.328900 0.000322 -0.000009 -0.830380 -0.833023 -44.872000 -22.291500 -0.000108 -0.000004 23.330800 5.598360 -11.244500 -2.192480 -6.469440 -0.000000 -175.735000 -8.712800 -4.685600 39.081100 -0.000007 -0.000012 -0.143446 0.307648 24.998200 40.985400 -0.000006 -0.000013 -0.561657 6.197130 -66.956300 11.754300 -0.000000 0.000003 -0.000173 -0.001639 -16.639600 -2.192510 6.469440 -0.000001 177.200000 24.563100 176.862000 -39.081100 -0.002282 -0.040193 -0.039277 0.092729 24.669000 -40.985400 0.000008 0.000006 4.628530 10.826500 -68.384200 -11.754300 -0.000006 -0.000006 -0.002435 -0.034041 -17.957300
0.000000 0.000000 0.000000 0.000000 0.000000 -0.000000 -1.434900 91.824900 -0.299770 89.526700 1.080310 3.381900 15.735700 0.000005 -0.000001 88.514500 87.414600 -89.290000 8.984550 -0.406207 -0.000000 -2.596890 -0.063901 -1.552540 16.377300 -0.000001 -0.000001 5.996500 -4.065720 1.112860 6.456720 -0.000001 -0.000000 -1.723490 -5.682920 1.099900 12.994200 -0.242716 4.980390 -83.736400 -10.785100 -59.606300 5.348090 -0.000007 -0.000001 -50.843000 -57.316200 -100.696000 24.328600 0.000019 0.000005 15.764100 16.187200 -45.359200 22.291600 -0.000001 0.000005 30.593900 5.381870 -2.357320 12.994500 -0.242716 -4.980390 94.368100 -10.159200 -66.584300 -5.348130 -0.000001 -0.000004 -51.588800 -59.106100 -98.585900 -24.328900 0.000322 -0.000009 -1.015950 -1.028480 -44.621200 -22.291500 -0.000108 -0.000004 23.379300 5.599170 -11.292900 -2.192480 -6.469440 -0.000000 -175.726000 -8.822450 -4.716950 39.081100 -0.000007 -0.000012 -0.143815 0.308692 24.980200 40.985400 -0.000006 -0.000013 -0.582349 6.148770 -66.932000 11.754300 -0.000000 0.000003 -0.000173 -0.001635 -16.639500 -2.192510 6.469440 -0.000001 177.255000 24.435000 176.765000 -39.081100 -0.002282 -0.040193 -0.041229 0.096970 24.670900 -40.985400 0.000008 0.000006 4.619110 10.831100 -68.339600 -11.754300 -0.000006 -0.000006 -0.002513 -0.034959 -17.994700
0.000000 0.000000 0.000000 0.000000 0.000000 -0.000000 -1.439810 91.837400 -0.342648 89.490900 0.977842 3.303050 15.735700 0.000005 -0.000001 88.318700 87.397700 -89.120000 8.984550 -0.406207 -0.000000 -2.563660 -0.080446 -1.604470 16.377300 -0.000001 -0.000001 5.845670 -4.139490 1.143200 6.456720 -0.000001 -0.000000 -1.701720 -5.698770 1.149310 12.994200 -0.242716 4.980390 -83.788300 -10.679100 -59.571900 5.348090 -0.000007 -0.000001 -50.811700 -57.546600 -100.608000 24.328600 0.000019 0.000005 15.846500 16.167500 -45.550300 22.291600 -0.000001 0.000005 30.492900 5.377630 -2.223910 12.994500 -0.242716 -4.980390 94.304500 -10.029000 -66.625100 -5.348130 -0.000001 -0.000004 -50.504400 -59.383300 -97.547000 -24.328900 0.000322 -0.000009 -1.214890 -1.246190 -44.251000 -22.291500 -0.000108 -0.000004 23.297000 5.598410 -11.248100 -2.192480 -6.469440 -0.000000 -175.699000 -8.873970 -4.793620 39.081100 -0.000007 -0.000012 -0.143480 0.308553 24.939000 40.985400 -0.000006 -0.000013 -0.595537 6.118160 -66.888900 11.754300 -0.000000 0.000003 -0.000185 -0.001731 -16.643000 -2.192510 6.469440 -0.000001 177.340000 24.426200 176.675000 -39.081100 -0.002282 -0.040193 -0.039429 0.093452 24.577600 -40.985400 0.000008 0.000006 4.542370 10.958600 -68.236800 -11.754300 -0.000006 -0.000006 -0.002200 -0.031193 -17.841500
0.000000 0.000000 0.000000 0.000000 0.000000 -0.000000 -1.424250 91.853700 -0.382977 89.474400 0.896077 3.230160 15.735700 0.000005 -0.000001 88.230800 87.371400 -89.048100 8.984550 -0.406207 -0.000000 -2.511440 -0.088990 -1.636470 16.377300 -0.000001 -0.000001 5.683860 -4.203700 1.176530 6.456720 -0.000001 -0.000000 -1.680490 -5.725000 1.234880 12.994200 -0.242716 4.980390 -83.928800 -10.424400 -59.551500 5.348090 -0.000007 -0.000001 -50.483300 -57.670700 -99.912900 24.328600 0.000019 0.000005 15.857700 15.744300 -46.311600 22.291600 -0.000001 0.000005 30.317200 5.367290 -1.902790 12.994500 -0.242716 -4.980390 94.223200 -9.800260 -66.547700 -5.348130 -0.000001 -0.000004 -48.823700 -59.569200 -95.665600 -24.328900 0.000322 -0.000009 -1.433950 -1.477140 -44.135700 -22.291500 -0.000108 -0.000004 23.169200 5.595070 -11.051700 -2.192480 -6.469440 -0.000000 -175.711000 -8.964910 -4.855910 39.081100 -0.000007 -0.000012 -0.141423 0.305061 24.872100 40.985400 -0.000006 -0.000013 -0.584103 6.103750 -66.829700 11.754300 -0.000000 0.000003 -0.000177 -0.001674 -16.640900 -2.192510 6.469440 -0.000001 177.389000 24.476200 176.596000 -39.081100 -0.002282 -0.040193 -0.036239 0.086743 24.511600 -40.985400 0.000008 0.000006 4.696440 11.047700 -68.208400 -11.754300 -0.000006 -0.000006 -0.002490 -0.034693 -17.983900
0.000000 0.000000 0.000000 0.000000 0.000000 -0.000000 -1.382700 91.865900 -0.423113 89.465000 0.732312 3.143240 15.735700 0.000005 -0.000001 88.006800 87.345900 -88.832700 8.984550 -0.406207 -0.000000 -2.461230 -0.110875 -1.654200 16.377300 -0.000001 -0.000001 5.432720 -4.262130 1.254100 6.456720 -0.000001 -0.000000 -1.594690 -5.691830 1.348410 12.994200 -0.242716 4.980390 -84.116900 -10.074100 -59.498600 5.348090 -0.000007 -0.000001 -49.582500 -57.641300 -97.761600 24.328600 0.000019 0.000005 15.915000 14.587400 -48.547300 22.291600 -0.000001 0.000005 29.927100 5.344640 -1.215400 12.994500 -0.242716 -4.980390 94.071600 -9.415700 -66.485500 -5.348130 -0.000001 -0.000004 -46.725300 -59.366000 -92.837300 -24.328900 0.000322 -0.000009 -2.145370 -2.165550 -44.733300 -22.291500 -0.000108 -0.000004 23.110700 5.588080 -10.654600 -2.192480 -6.469440 -0.000000 -175.739000 -9.112350 -4.920160 39.081100 -0.000007 -0.000012 -0.140526 0.303837 24.820900 40.985400 -0.000006 -0.000013 -0.560074 6.082590 -66.795800 11.754300 -0.000000 0.000003 -0.000169 -0.001609 -16.638500 -2.192510 6.469440 -0.000001 177.419000 24.411100 176.474000 -39.081100 -0.002282 -0.040193 -0.038153 0.091162 24.458900 -40.985400 0.000008 0.000006 4.661740 11.171000 -68.125800 -11.754300 -0.000006 -0.000006 -0.002419 -0.033846 -17.949400
0.000000 0.000000 0.000000 0.000000 0.000000 -0.000000 -1.327230 91.868100 -0.439835 89.466700 0.563966 3.122590 15.735700 0.000005 -0.000001 87.266900 87.290100 -88.080100 8.984550 -0.406207 -0.000000 -2.353150 -0.186585 -1.630080 16.377300 -0.000001 -0.000001 5.255880 -4.219250 1.318160 6.456720 -0.000001 -0.000000 -1.583200 -5.537340 1.383640 12.994200 -0.242716 4.980390 -84.344000 -9.721660 -59.608500 5.348090 -0.000007 -0.000001 -47.833500 -57.417700 -93.203800 24.328600 0.000019 0.000005 16.730800 12.958400 -53.279000 22.291600 -0.000001 0.000005 28.976800 5.303140 -0.012387 12.994500 -0.242716 -4.980390 93.802200 -8.761070 -66.426800 -5.348130 -0.000001 -0.000004 -44.035600 -58.580900 -88.858300 -24.328900 0.000322 -0.000009 -3.476680 -3.317510 -46.376800 -22.291500 -0.000108 -0.000004 23.391400 5.578230 -10.118900 -2.192480 -6.469440 -0.000000 -175.762000 -9.389620 -4.924430 39.081100 -0.000007 -0.000012 -0.139243 0.301064 24.820900 40.985400 -0.000006 -0.000013 -0.499449 6.163460 -66.802600 11.754300 -0.000000 0.000003 -0.000172 -0.001634 -16.639500 -2.192510 6.469440 -0.000001 177.407000 24.255400 176.412000 -39.081100 -0.002282 -0.040193 -0.037886 0.090536 24.468200 -40.985400 0.000008 0.000006 4.628220 11.204900 -68.091100 -11.754300 -0.000006 -0.000006 -0.002416 -0.033811 -17.948000
0.000000 0.000000 0.000000 0.000000 0.000000 -0.000000 -1.259870 91.856800 -0.447345 89.483500 0.365190 3.148580 15.735700 0.000005 -0.000001 86.092400 87.221500 -86.871500 8.984550 -0.406207 -0.000000 -2.223650 -0.310690 -1.564040 16.377300 -0.000001 -0.000001 5.046540 -4.178360 1.396220 6.456720 -0.000001 -0.000000 -1.486130 -5.272560 1.309580 12.994200 -0.242716 4.980390 -84.707900 -9.193210 -59.895500 5.348090 -0.000007 -0.000001 -44.715700 -56.807900 -85.872400 24.328600 0.000019 0.000005 17.760700 10.550200 -60.247700 22.291600 -0.000001 0.000005 27.267900 5.259200 1.195910 12.994500 -0.242716 -4.980390 93.440600 -7.904090 -66.384500 -5.348130 -0.000001 -0.000004 -41.076000 -56.933300 -83.630600 -24.328900 0.000322 -0.000009 -5.191110 -4.425620 -49.642200 -22.291500 -0.000108 -0.000004 24.028000 5.569460 -9.661630 -2.192480 -6.469440 -0.000000 -175.811000 -9.562560 -4.907000 39.081100 -0.000007 -0.000012 -0.139320 0.300251 24.892000 40.985400 -0.000006 -0.000013 -0.451425 6.139420 -66.859100 11.754300 -0.000000 0.000003 -0.000178 -0.001681 -16.641200 -2.192510 6.469440 -0.000001 177.324000 24.099800 176.372000 -39.081100 -0.002282 -0.040193 -0.045832 0.107597 24.548700 -40.985400 0.000008 0.000006 4.443640 11.262900 -68.057500 -11.754300 -0.000006 -0.000006 -0.002436 -0.034045 -17.957500
0.000000 0.000000 0.000000 0.000000 0.000000 -0.000000 -1.178170 91.839300 -0.445567 89.500200 0.157616 3.297360 15.735700 0.000005 -0.000001 84.243700 87.102300 -84.961800 8.984550 -0.406207 -0.000000 -2.002670 -0.519924 -1.445100 16.377300 -0.000001 -0.000001 4.866420 -4.081740 1.438440 6.456720 -0.000001 -0.000000 -1.428870 -4.966030 1.239380 12.994200 -0.242716 4.980390 -85.216800 -8.428450 -60.278500 5.348090 -0.000007 -0.000001 -40.717600 -55.271900 -76.384000 24.328600 0.000019 0.000005 18.785000 7.619110 -68.705700 22.291600 -0.000001 0.000005 25.635100 5.216990 2.292520 12.994500 -0.242716 -4.980390 92.991100 -6.935590 -66.601300 -5.348130 -0.000001 -0.000004 -38.018900 -54.434100 -76.854700 -24.328900 0.000322 -0.000009 -7.044390 -4.979310 -54.903900 -22.291500 -0.000108 -0.000004 24.639500 5.559880 -9.182660 -2.192480 -6.469440 -0.000000 -175.839000 -9.773960 -4.772220 39.081100 -0.000007 -0.000012 -0.140421 0.301158 24.998400 40.985400 -0.000006 -0.000013 -0.391905 6.128300 -66.942600 11.754300 -0.000000 0.000003 -0.000176 -0.001662 -16.640500 -2.192510 6.469440 -0.000001 177.176000 23.899500 176.463000 -39.081100 -0.002282 -0.040193 -0.051584 0.119619 24.651900 -40.985400 0.000008 0.000006 4.215140 11.364200 -68.033400 -11.754300 -0.000006 -0.000006 -0.002248 -0.031784 -17.865500
